<?xml version="1.0" encoding="utf-8"?>
<!-- Generator: Adobe Illustrator 23.1.0, SVG Export Plug-In . SVG Version: 6.00 Build 0)  -->
<svg version="1.1" id="Layer_1" xmlns="http://www.w3.org/2000/svg" xmlns:xlink="http://www.w3.org/1999/xlink" x="0px" y="0px"
	 viewBox="0 0 94 75" style="enable-background:new 0 0 94 75;" xml:space="preserve">
<style type="text/css">
	.st0{fill:#0D3944;}
	.st1{fill:#EE6E4C;}
	.st2{fill:#F58A68;}
	.st3{fill:#164353;}
	.st4{fill:#CFD8DC;}
	.st5{fill:#DB614D;}
	.st6{fill:#1B4850;}
	.st7{fill:#6197B1;}
	.st8{fill:#225260;}
	.st9{fill:#8B383F;}
	.st10{fill:#662C34;}
	.st11{fill:#CE374C;}
	.st12{fill:#EF4253;}
	.st13{fill:#A12E45;}
	.st14{fill:#FBB778;}
	.st15{fill:#ADBEC4;}
	.st16{fill:#09476B;}
	.st17{fill:#0D5E9A;}
	.st18{fill:#245866;}
	.st19{fill:#8CBDDB;}
	.st20{fill:#3F6675;}
</style>
<g>
	<g id="Group_9" transform="translate(0 48.034)">
		<path id="Path_1" class="st0" d="M23.2-27.6c0,0-1.1-0.8-2.8-0.2c-1.7,0.6-2.1,2.9-1.6,4.7c0.4,1.8-1.9,8.1-1.9,8.1s1.2,1.7,5.4,1
			c0,0,3.1-5.7,2.9-9.8C24.9-27.8,23.2-27.6,23.2-27.6z"/>
		<path id="Path_2" class="st1" d="M24.5-20.6c1.6-0.5,2.5,0.8,3.5,3.3c0.9,2.4,1.2,2.7,1.2,2.7l3.5,2.2l-0.3,1.3
			c0,0-3.3-1.3-4.1-2.1s-3.1-5-3.1-5L24.5-20.6z"/>
		<path id="Path_3" class="st2" d="M16.8-4.8c0,0-0.7,3.5-0.6,8.7c0,0-2.7,4-0.5,15.3h1.2c0,0,0.9-9.7,1.7-12.3
			c0.7-2.6,3.4-3.4,3.6-11.4L16.8-4.8z"/>
		<path id="Path_4" class="st2" d="M11.5,5.4c-0.7-2.2-2.4-6-6.9-11.1C4.4-5.7,4.1-5.7,3.9-5.6C3.7-5.5,3.6-5.3,3.6-5
			c0,0,2.2,4.9,3.7,8.5c0.5,1.2,1.6,2,2.9,2L11.5,5.4z"/>
		<path id="Path_5" class="st3" d="M19.6,9.8c0,0,0,1.7-1.1,1.7c-1.5,0-1.6-1.6-3.4-1.6s-5.4,0.5-6.5-2.2C8.1,6.2,8.9,4.4,7,3
			S6,0.1,7-0.7S6.5-2.4,7.6-2.8c0.2-0.1,0.5-0.1,0.7,0c0.1,0,0.3,0.1,0.4,0.2c0.4,0.3,0.7,0.6,0.9,1c2.9-8,8.1-9,8.1-9l5.1,1.8
			C22.9,3.5,19.6,9.8,19.6,9.8z"/>
		<path id="Path_6" class="st4" d="M24.5-20.6c-0.9,0.3-1.9,0.3-2.9,0.1c-1.7-0.3-2.2-1.3-3.4-0.6c-1.8,1-0.9,4.6-0.5,6.4
			c0.3,1.3,0.3,2.7,0,4c0,0,2.4,1.9,5.1,1.8l1.5-3.2C24.3-12.1,27.5-16,24.5-20.6z"/>
		<path id="Path_7" class="st1" d="M21.5-23.5c0.1,1.1,0,2.2-0.4,3.2c0,0,0.9,1.3,1.7,0.5c0.1-1.2,0.5-2.3,1-3.3
			C24.5-24.3,21.5-23.5,21.5-23.5z"/>
		<g id="Group_4" transform="translate(69.883 2.432)">
			<path id="Path_8" class="st2" d="M-49.7-25.9c0,0-0.7-0.5-0.7,0.3c0.1,0.8,0.9,1,1,0.7C-49.3-25.2-49.7-25.9-49.7-25.9z"/>
			<path id="Path_9" class="st2" d="M-45.5-26.8c0,0,0.5-0.7,0.7-0.1c0.3,0.8-0.4,1.3-0.6,1.1C-45.6-26-45.5-26.8-45.5-26.8z"/>
			<path id="Path_10" class="st2" d="M-47-23.4c-1.4,0.3-2.3-0.4-2.9-3.1c-0.3-1.4,0.2-2.4,1.7-2.7c1.5-0.3,2.3,0.4,2.6,1.7
				C-44.9-24.6-45.6-23.7-47-23.4z"/>
			<path id="Path_11" class="st5" d="M-45.8-26.4c0,0.1,0,0.3-0.2,0.4c0,0,0,0,0,0c-0.1,0.1-0.3,0-0.4-0.1c0-0.1,0-0.3,0.2-0.4
				c0,0,0,0,0,0C-46-26.6-45.8-26.5-45.8-26.4z"/>
			<path id="Path_12" class="st5" d="M-48.6-25.7c0,0.2-0.1,0.3-0.3,0.3c0,0,0,0,0,0c-0.2,0-0.3-0.1-0.4-0.2c0-0.2,0.1-0.3,0.3-0.3
				c0,0,0,0,0,0C-48.8-25.9-48.6-25.8-48.6-25.7C-48.6-25.7-48.6-25.7-48.6-25.7z"/>
			<g id="Group_1" transform="translate(11.034 7.097)">
				<path id="Path_13" class="st0" d="M-57.8-34.7C-57.8-34.7-57.8-34.7-57.8-34.7c-0.2-0.1-0.4-0.1-0.6-0.1c0,0-0.1,0-0.1-0.1
					s0-0.1,0.1-0.1c0.2-0.1,0.5,0,0.7,0.1C-57.7-34.8-57.7-34.8-57.8-34.7C-57.7-34.7-57.7-34.7-57.8-34.7z"/>
			</g>
			<g id="Group_2" transform="translate(3.886 8.347)">
				<path id="Path_14" class="st0" d="M-53.2-35.4C-53.2-35.4-53.2-35.4-53.2-35.4c-0.1,0-0.1-0.1-0.1-0.1c0.1-0.2,0.3-0.3,0.6-0.4
					c0,0,0.1,0,0.1,0.1c0,0,0,0.1-0.1,0.1C-52.8-35.7-53-35.6-53.2-35.4C-53.1-35.4-53.1-35.4-53.2-35.4
					C-53.2-35.4-53.2-35.4-53.2-35.4z"/>
			</g>
			<path id="Path_15" class="st6" d="M-46.7-26.9c0,0.2,0,0.3-0.1,0.3c-0.1,0-0.2-0.1-0.2-0.3c0-0.2,0-0.3,0.1-0.3
				C-46.8-27.2-46.7-27-46.7-26.9z"/>
			<path id="Path_16" class="st6" d="M-48.6-26.5c0,0.2,0,0.3-0.1,0.3c-0.1,0-0.2-0.1-0.2-0.3c0-0.2,0-0.3,0.1-0.3
				C-48.7-26.7-48.6-26.6-48.6-26.5z"/>
			<path id="Path_17" class="st6" d="M-47.9-24.9c0,0,0.9-0.1,1.2-0.4c0,0-0.1,0.7-0.6,0.7C-47.5-24.5-47.8-24.6-47.9-24.9z"/>
			<path id="Path_18" class="st6" d="M-47.1-26.8c0,0,0-0.4,0.2-0.5c0.2,0,0.4,0.3,0.4,0.3l0.2-0.2l-0.2,0.1c0,0-0.2-0.3-0.4-0.3
				C-47.2-27.3-47.1-26.8-47.1-26.8z"/>
			<path id="Path_19" class="st6" d="M-48.4-26.5c0,0-0.2-0.4-0.4-0.3c-0.2,0.1-0.2,0.5-0.2,0.5l-0.3-0.1l0.3,0c0,0,0-0.4,0.2-0.4
				C-48.6-27-48.4-26.5-48.4-26.5z"/>
			<g id="Group_3" transform="translate(9.585 12.961)">
				<path id="Path_20" class="st5" d="M-57.1-38.6l-0.1-0.1c0.1,0,0.1-0.1,0.1-0.2c0-0.1-0.1-0.1-0.1-0.1c0,0-0.1,0-0.1,0.1
					l-0.1-0.1c0.1-0.2,0.2-0.2,0.2-0.2c0.1,0,0.2,0.1,0.3,0.3C-56.9-38.8-57-38.7-57.1-38.6z"/>
			</g>
			<path id="Path_21" class="st0" d="M-49.6-25.4c0,0-0.4-1.5-0.2-2.6c0,0,1.2-1.6,3.5-0.8c0.5,0.8,0.8,1.7,1,2.6
				c0-0.6,0-1.2-0.1-1.8c-0.2-1.2-1.3-2-2.8-1.7C-49.8-29.5-51.3-28-49.6-25.4z"/>
		</g>
		<path id="Path_22" class="st0" d="M22.6-26.8c0,0,0.1,0.4-0.3,1.4c-0.2-0.2-0.4-0.2-0.6,0c0,0,0,0,0,0c-0.3,0.3-1,0.2-1.2,0.4
			c-0.2,0.1-0.2,0.3-0.2,0.5c-0.1-0.3-0.1-0.7,0-1c-0.3,0.4-0.4,0.8-0.4,1.3c0,0-0.6-0.1-0.6-1.1s1.4-2.6,3-2.5c1.6,0.1,2,2.6,2,2.6
			c-0.1-0.1-0.2-0.1-0.4-0.1c-0.1-0.4-0.2-0.8-0.4-1.2c0.1,0.3,0.1,0.7,0,1c-0.2-0.1-0.5-0.2-0.8-0.2C22.7-25.6,22.9-26,22.6-26.8z"
			/>
		<path id="Path_23" class="st2" d="M17.8-20.7c0.8-0.6,1.4,0.2,1.5,1.2c0.1,1.1-1.2,7.4-2.3,7.1c-0.4-0.1-0.6-1.7-0.6-1.7
			c0.3-1.5,0.5-2.9,0.7-4.4C17.2-19.8,17.4-20.4,17.8-20.7z"/>
		<path id="Path_24" class="st2" d="M15.5-13.3c-1-1-2.9-4.3-3.4-5.9l0.8-0.3c0,0,2.4,3.4,3.5,4.2c1.1,0.8,1.5,1.8,1,2.6
			C16.9-11.8,15.8-13,15.5-13.3z"/>
		<g id="Group_5" transform="translate(34.22 23.22)">
			<path id="Path_25" class="st2" d="M-21.7-44.6c-0.1,1.1,0.8,1.3,0.4,2.2c-0.1,0.1-0.2,0.3-0.3,0.3c-0.2,0.1-0.5,0-0.7-0.2
				c-0.4-0.4-0.9-0.8-1.4-1.1c-0.4-0.2-0.2-0.3-0.2-0.3c0,0-0.1,0-0.1,0c-0.3-0.1-0.5-0.2-0.3-0.3c0.2-0.1,1,0.2,1,0.2
				c-1-0.7-1.3-0.5-1.1-0.7c0.3-0.2,1.2,0.3,1.3,0.3c-0.6-0.5-0.9-0.6-0.7-0.7c0.2-0.1,1.3,0.7,1.7,1c0.1,0,0.1,0.1,0.1,0.1
				C-22-44.7-21.7-44.6-21.7-44.6z"/>
			<path id="Path_26" class="st1" d="M-22.1-44c0.1,0,0.1,0.1,0.1,0.1c-0.1,0.2-0.1,0.5,0.1,0.7C-22.2-43.3-22.3-43.7-22.1-44z"/>
			<path id="Path_27" class="st1" d="M-23-43.3c-0.1-0.1-0.6-0.4-0.8-0.3c0,0-0.1,0-0.1,0C-23.8-43.9-23.1-43.4-23-43.3z"/>
		</g>
		<g id="Group_6" transform="translate(26.433 68.885)">
			<path id="Path_28" class="st7" d="M-11.1-73.1c0,0.1-0.1,0.2-0.2,0.2c-0.1,0-0.2-0.1-0.2-0.2c0-0.1,0.1-0.2,0.2-0.2
				C-11.2-73.3-11.1-73.2-11.1-73.1z"/>
			<path id="Path_29" class="st7" d="M-7.4-71.7c0,0.1-0.1,0.2-0.2,0.2s-0.2-0.1-0.2-0.2c0-0.1,0.1-0.2,0.2-0.2S-7.4-71.8-7.4-71.7
				L-7.4-71.7z"/>
			<path id="Path_30" class="st7" d="M-4.2-70.9c0,0.1-0.1,0.2-0.2,0.2c-0.1,0-0.2-0.1-0.2-0.2c0-0.1,0.1-0.2,0.2-0.2
				S-4.2-71-4.2-70.9L-4.2-70.9z"/>
			<path id="Path_31" class="st7" d="M-9.1-75.9c0,0.1-0.1,0.2-0.2,0.2c-0.1,0-0.2-0.1-0.2-0.2c0-0.1,0.1-0.2,0.2-0.2
				C-9.2-76.1-9.1-76-9.1-75.9L-9.1-75.9z"/>
			<circle id="Ellipse_6" class="st7" cx="-8.6" cy="-73.9" r="0.2"/>
			<path id="Path_32" class="st7" d="M-5-72.7c0,0.1-0.1,0.2-0.2,0.2c-0.1,0-0.2-0.1-0.2-0.2c0-0.1,0.1-0.2,0.2-0.2S-5-72.8-5-72.7
				L-5-72.7z"/>
			<path id="Path_33" class="st7" d="M-4.6-76.2c0,0.1-0.1,0.2-0.2,0.2C-4.9-76-5-76.1-5-76.2c0-0.1,0.1-0.2,0.2-0.2
				S-4.6-76.3-4.6-76.2L-4.6-76.2z"/>
			<circle id="Ellipse_7" class="st7" cx="-7" cy="-76.9" r="0.2"/>
			<path id="Path_34" class="st7" d="M-13-69c0,0.1-0.1,0.2-0.2,0.2c-0.1,0-0.2-0.1-0.2-0.2c0-0.1,0.1-0.2,0.2-0.2S-13-69.1-13-69
				L-13-69z"/>
			<path id="Path_35" class="st7" d="M-16-69.9c0,0.1-0.1,0.2-0.2,0.2c-0.1,0-0.2-0.1-0.2-0.2c0-0.1,0.1-0.2,0.2-0.2
				C-16.1-70.1-16-70-16-69.9z"/>
			<path id="Path_36" class="st7" d="M-17.8-71.5c0,0.1-0.1,0.1-0.2,0.1c-0.1,0-0.2-0.1-0.2-0.2l0,0c0,0,0-0.1,0-0.1
				C-18-71.7-17.9-71.6-17.8-71.5z"/>
			<circle id="Ellipse_8" class="st7" cx="-12.1" cy="-66.3" r="0.2"/>
			<path id="Path_37" class="st7" d="M-17.3-63.3c0,0.1-0.1,0.2-0.2,0.2c-0.1,0-0.2-0.1-0.2-0.2s0.1-0.2,0.2-0.2
				C-17.4-63.5-17.3-63.4-17.3-63.3L-17.3-63.3z"/>
			<circle id="Ellipse_9" class="st7" cx="-15.3" cy="-65.1" r="0.2"/>
			<circle id="Ellipse_10" class="st7" cx="-18.6" cy="-66.7" r="0.2"/>
			<path id="Path_38" class="st7" d="M-15.7-60.4c0,0.1-0.1,0.2-0.2,0.2c-0.1,0-0.2-0.1-0.2-0.2c0-0.1,0.1-0.2,0.2-0.2
				C-15.8-60.6-15.7-60.5-15.7-60.4L-15.7-60.4z"/>
			<path id="Path_39" class="st7" d="M-13.7-71.5c0,0.1-0.1,0.2-0.2,0.2c-0.1,0-0.2-0.1-0.2-0.2c0-0.1,0.1-0.2,0.2-0.2
				C-13.8-71.7-13.7-71.6-13.7-71.5z"/>
			<path id="Path_40" class="st7" d="M-11.7-75c0,0.1-0.1,0.2-0.2,0.2c-0.1,0-0.2-0.1-0.2-0.2c0-0.1,0.1-0.2,0.2-0.2
				C-11.8-75.2-11.7-75.1-11.7-75L-11.7-75z"/>
			<path id="Path_41" class="st7" d="M-9.4-77.9c0,0.1-0.1,0.2-0.2,0.2c-0.1,0-0.2-0.1-0.2-0.2c0-0.1,0.1-0.2,0.2-0.2
				C-9.5-78.2-9.4-78.1-9.4-77.9C-9.4-78-9.4-78-9.4-77.9z"/>
			<path id="Path_42" class="st7" d="M-14-73.6c0,0.1-0.1,0.2-0.2,0.2c-0.1,0-0.2-0.1-0.2-0.2c0-0.1,0.1-0.2,0.2-0.2
				S-14-73.8-14-73.6L-14-73.6z"/>
			<path id="Path_43" class="st7" d="M-11.5-77.1c0,0.1-0.1,0.2-0.2,0.2c-0.1,0-0.2-0.1-0.2-0.2c0-0.1,0.1-0.2,0.2-0.2
				S-11.5-77.2-11.5-77.1L-11.5-77.1z"/>
			<path id="Path_44" class="st7" d="M-15.5-67.6c0,0.1-0.1,0.2-0.2,0.2c-0.1,0-0.2-0.1-0.2-0.2c0-0.1,0.1-0.2,0.2-0.2
				S-15.5-67.7-15.5-67.6L-15.5-67.6z"/>
			<path id="Path_45" class="st7" d="M-18.1-69.5c0,0.1-0.1,0.2-0.2,0.2s-0.2-0.1-0.2-0.2c0-0.1,0.1-0.2,0.2-0.2
				C-18.2-69.7-18.1-69.6-18.1-69.5L-18.1-69.5z"/>
			<circle id="Ellipse_11" class="st7" cx="-10.7" cy="-70.1" r="0.2"/>
			<circle id="Ellipse_12" class="st7" cx="-6.3" cy="-69" r="0.2"/>
			<path id="Path_46" class="st7" d="M-6.3-75c0,0.1-0.1,0.2-0.2,0.2s-0.2-0.1-0.2-0.2c0-0.1,0.1-0.2,0.2-0.2S-6.3-75.1-6.3-75
				L-6.3-75z"/>
			<path id="Path_47" class="st7" d="M-3.8-74.6c0,0.1-0.1,0.2-0.2,0.2c-0.1,0-0.2-0.1-0.2-0.2c0-0.1,0.1-0.2,0.2-0.2
				S-3.8-74.7-3.8-74.6L-3.8-74.6z"/>
			<path id="Path_48" class="st7" d="M-8.9-67.4c0,0.1-0.1,0.2-0.2,0.2c-0.1,0-0.2-0.1-0.2-0.2c0-0.1,0.1-0.2,0.2-0.2
				C-9-67.6-8.9-67.5-8.9-67.4z"/>
			<circle id="Ellipse_13" class="st7" cx="-10.9" cy="-63.7" r="0.2"/>
			<circle id="Ellipse_14" class="st7" cx="-14.1" cy="-63.1" r="0.2"/>
			<circle id="Ellipse_15" class="st7" cx="-5.2" cy="-66.3" r="0.2"/>
			<path id="Path_49" class="st7" d="M-7.9-64.7c0,0.1-0.1,0.2-0.2,0.2c-0.1,0-0.2-0.1-0.2-0.2c0-0.1,0.1-0.2,0.2-0.2
				C-8-64.9-7.9-64.8-7.9-64.7L-7.9-64.7z"/>
			<path id="Path_50" class="st7" d="M-12.3-60c0,0.1-0.1,0.2-0.2,0.2c-0.1,0-0.2-0.1-0.2-0.2s0.1-0.2,0.2-0.2
				C-12.4-60.2-12.3-60.1-12.3-60L-12.3-60z"/>
			<circle id="Ellipse_16" class="st7" cx="-9.3" cy="-61.1" r="0.2"/>
			<circle id="Ellipse_17" class="st7" cx="-6.2" cy="-62.3" r="0.2"/>
			<path id="Path_51" class="st7" d="M-7.4-58.7c0,0.1-0.1,0.2-0.2,0.2s-0.2-0.1-0.2-0.2c0-0.1,0.1-0.2,0.2-0.2h0
				C-7.5-58.9-7.4-58.8-7.4-58.7z"/>
		</g>
		<g id="Group_7" transform="translate(54.673 169.109)">
			<path id="Path_52" class="st3" d="M-35.8-147.8h-3.5c-0.2-0.7,0.2-1.3,0.1-1.9c-0.1-1,0.4-0.4,0.4-0.4c0.1-1,1.5-1.2,1.5-0.8
				c0,0.7,0.1,1.1,0.3,1.4c0.4,0.6,1,0.6,1.1,1c0,0,0,0.1,0,0.1C-35.6-147.9-35.8-147.8-35.8-147.8z"/>
			<path id="Path_53" class="st8" d="M-35.7-148.4c-0.7,0.2-2.4-0.1-2.4-0.5c-0.1-0.4,0.8-0.6,1.3-0.6c0.4,0.6,1,0.6,1.1,1
				C-35.7-148.5-35.7-148.4-35.7-148.4z"/>
		</g>
		<g id="Group_8" transform="translate(0 76.225)">
			<path id="Path_54" class="st3" d="M4.6-81.7c-0.4-0.3-1,0.2-1,0.2S4-81,3.8-80.8c-0.2,0.2-0.5-0.3-0.9-0.1c0,0-0.1,0-0.1,0.1
				c-0.3,0.3-0.7,0.6-0.9,0.9c-0.1,0.1-0.1,0.1-0.2,0.2c-0.3,0.3-1.1,0.5-1.3-0.4C0.3-81,1.3-82,2.4-83s1.8-0.4,1.8-0.4
				c0.1,0.2,0.2,0.4,0.2,0.7c0,0.2,0.2,0.4,0.3,0.6C4.8-82,4.8-81.8,4.6-81.7C4.7-81.7,4.6-81.7,4.6-81.7z"/>
			<path id="Path_55" class="st8" d="M2.8-80.8c-0.3,0.3-0.7,0.6-0.9,0.9c-0.4,0.1-0.8,0.1-0.8-0.3c-0.1-0.9,1.7-2.1,1.6-1.4
				C2.6-81.4,2.6-81.1,2.8-80.8z"/>
		</g>
	</g>
	<g id="Group_22" transform="translate(198.867 0)">
		<path id="Path_56" class="st4" d="M-132,67.8c-0.2-0.1-0.4-0.3-0.5-0.5c-0.1-0.5-0.1-1,0-1.5c0.1-0.8-0.2-1.4-1.3-1.6
			c-1.1-0.2-1.7,0.3-1.5,2.4l0,0c-0.2,0.9-0.2,1.9,0.2,2.8h3.3C-131.8,69.3-131.3,68.2-132,67.8z"/>
		<path id="Path_57" class="st2" d="M-129.1,56.3c-0.1,1.5-0.5,3-1.2,4.3c-1.2,2.2-2.7,5.3-2.7,5.3s-1,1-1.7-0.7
			c0,0,0.5-5.7,1.5-7.8S-129.1,56.3-129.1,56.3z"/>
		<path id="Path_58" class="st2" d="M-113.4,49.3c0,0,2,8.2,3.2,10.4c0,0-0.3,0.9-1.6,1.2c0,0-4.2-6.2-4.5-8.9
			C-116.6,49.4-113.4,49.3-113.4,49.3z"/>
		<g id="Group_11" transform="translate(36.95 105.979)">
			<path id="Path_59" class="st9" d="M-149.4-54.7c-0.5,1.2-4.5,1.3-4.5,1.3l-0.3-0.5l-0.1-0.1l-0.6-0.9c0,0-6.6-6.5-7.9-6l0,0
				l-0.1,0.1c-0.9,0.6-1,4.1-2,10c-0.1,0.6-0.3,1.1-0.5,1.6c0,0,0,0.1-0.1,0.1c-0.1,0.3-0.2,0.4-0.2,0.4c-4.1,1.6-5.4-1.6-5.4-1.6
				c0-0.1,0.1-0.2,0.1-0.2l0.1-0.1c0.2-0.5,0.6-1.3,0.6-1.7c0-0.5,0-0.9,0-1.4v-3.9c0-0.5,0-0.9,0-1.3V-59c0-1.9,0.1-3.1,0.2-3.9
				V-63c0.1-1.4,0.2-1.5,0.2-1.5l-0.8-5.6h8.9c0,0,1.3,1.3,3.1,3.1l0.1,0.1c0.6,0.6,1.3,1.3,2,2l0.1,0.1c0.3,0.3,0.5,0.6,0.8,0.8
				l0.1,0.1c0.9,0.9,1.8,1.8,2.5,2.6l0.1,0.1c0.7,0.8,1.4,1.5,2.1,2.4c0.6,1.1,1.2,2.2,1.6,3.3l0,0c0,0,0,0.1,0,0.1
				C-149.5-55-149.4-54.7-149.4-54.7z"/>
			<g id="Group_10" transform="translate(0.507 7.462)">
				<path id="Path_60" class="st10" d="M-169.2-71.1c-0.4,0.5-1,0.7-1.6,0.8v-0.1C-170.2-70.5-169.7-70.8-169.2-71.1
					c0.3-0.6,0.5-1.2,0.4-1.8l0.1,0C-168.6-72.3-168.8-71.6-169.2-71.1z"/>
				<path id="Path_61" class="st10" d="M-159.3-74.4L-159.3-74.4c-1.1,0-2.1-1.1-2.2-1.1l0.1-0.1C-161.4-75.6-160.4-74.6-159.3-74.4
					C-159.4-74.5-159.4-74.5-159.3-74.4z"/>
				<path id="Path_62" class="st10" d="M-166-56.6c0,0,0,0.1-0.1,0.1c-0.6,0.2-1.2,0.3-1.8,0.3c-1.8,0-3-1-3.6-1.8l0.1-0.1
					C-170.6-57.1-168.8-55.6-166-56.6z"/>
				<path id="Path_63" class="st10" d="M-163.7-70.3c0.2,0.7,0.2,1.3,0.2,2l-0.1,0.1c0-3.3-1.9-5.9-1.9-5.9l0.1-0.1
					c0.8,1.1,1.4,2.4,1.7,3.8c0.2-0.1,0.4-0.4,0.4-0.6c0.3-1.2-1-3.1-1-3.1l0.1-0.1c0.1,0.1,1.3,2,1,3.2
					C-163.2-70.8-163.4-70.5-163.7-70.3z"/>
				<path id="Path_64" class="st10" d="M-153.8-68.7c-0.3,0.4-0.6,0.7-0.7,0.7l-0.1,0.1l0-0.1c-0.4-1.1-3.2-3.6-3.2-3.6l0,0l0.5-0.8
					l0.1,0.1l-0.4,0.6c0.4,0.1,0.8,0.2,1.2,0.2l0.1,0.1c-0.1,0-0.2,0-0.3,0c-0.3,0-0.6-0.1-0.8-0.1c0.6,0.6,2.6,2.4,3,3.4
					c0.2-0.2,0.4-0.4,0.6-0.6C-153.8-68.7-153.8-68.7-153.8-68.7z"/>
				<path id="Path_65" class="st10" d="M-168.9-61.2L-168.9-61.2c-0.4,0.1-0.8,0.1-1.1,0.1c-0.3,0-0.6,0-0.9-0.1v-0.1
					C-170.2-61-169.3-61.2-168.9-61.2l-0.3-4.7c-0.1,0.3-0.4,0.6-0.7,0.8c-0.2,0.1-0.4,0.1-0.6,0.1c-0.1,0-0.3,0-0.4,0V-65
					c0.7,0.2,1.4-0.2,1.7-0.9c0,0,0-0.1,0-0.1c-0.4,0.1-1.1-0.1-1.7-0.3v-0.1c0.6,0.2,1.4,0.4,1.7,0.3l0.1,0L-168.9-61.2z"/>
				<path id="Path_66" class="st10" d="M-150.2-62.9c-1,1-2.5,1.6-3.9,1.6c-0.2,0-0.4,0-0.7,0l-0.1-0.1
					C-153.1-61.2-151.4-61.7-150.2-62.9C-150.2-62.9-150.2-62.9-150.2-62.9z"/>
			</g>
		</g>
		<path id="Path_67" class="st11" d="M-123.4,11.8c0,0-0.2-0.6-1.3-0.6c-0.4,0-0.8,0.1-1.1,0.4c-0.5,1.4-1,6.7-1.2,6.9
			c-0.1,0.1-6,4.1-6,4.1c3.2,0.1,5.2,4,5.2,4c0.1-1.3,3.7-6.4,3.7-6.9C-123.9,18.9-122.4,15-123.4,11.8z"/>
		<path id="Path_68" class="st11" d="M-133.6,39.6c0,0,0,1.1,0.3,1.2c2.2,0.6,4.5,0.4,6.6-0.6c3.4-1.5,3.9-2.7,3-3.5
			C-124.7,35.8-133.6,39.6-133.6,39.6z"/>
		<path id="Path_69" class="st12" d="M-135,23.4c0,0-3.1-0.4-4.8,0.4c0,0-0.5,2.2,1.9,7s1.9,7.9,4.6,9.1c2.4,1,9.5-2,9.7-3
			c0.6-2.5-3.8-7-4-9.6C-127.9,24.7-130.4,20.8-135,23.4z"/>
		<path id="Path_70" class="st11" d="M-139.7,23.8c-2.1,0.7-4.5,3.2-4.5,4.3c0,1.2,2,1.6,2,1.6l3.3-1.6c0,0,0.9-0.7,0.3-2.6
			C-139.3,23.6-139.7,23.8-139.7,23.8z"/>
		<g id="Group_12" transform="translate(40.018 61.132)">
			<path id="Path_71" class="st4" d="M-171-35.2c-0.7,0-1.3-0.2-1.9-0.6c-0.2-0.1-0.4-0.4-0.5-0.6c-0.1-0.7,0.6-1.1,0.7-1.2l0.1,0.2
				c0,0-0.6,0.3-0.5,0.9c0.1,0.2,0.2,0.4,0.4,0.5c0.6,0.4,1.4,0.6,2.1,0.5c0.2,0,0.4-0.1,0.6-0.3c0.1-0.1,0.1-0.3,0-0.4l0.2-0.1
				c0.1,0.2,0.1,0.4,0,0.6c-0.2,0.2-0.4,0.4-0.7,0.4C-170.7-35.2-170.9-35.2-171-35.2z"/>
		</g>
		<g id="Group_13" transform="translate(29.777 63.377)">
			<path id="Path_72" class="st4" d="M-163.5-35.1c-0.5,0-1.3-0.2-1.4-1c0-0.3,0-0.7,0-1c0-0.4,0.1-0.8-0.2-1.2
				c-0.2-0.4-0.6-0.6-1-0.7l0-0.2c0.5,0.1,0.9,0.4,1.2,0.8c0.3,0.5,0.2,0.9,0.2,1.3c0,0.3-0.1,0.6,0,1c0.1,0.8,1.2,0.8,1.2,0.8
				l0,0.2C-163.4-35.1-163.4-35.1-163.5-35.1z"/>
		</g>
		<path id="Path_73" class="st11" d="M-133,24.3c0,0,1.6-1.1,1.2-2.3c-0.4-1.2-5.6-1.1-6.9,0.3c-1.3,1.4,2.9,2.4,2.9,2.4
			C-135.5,24-133.4,24-133,24.3z"/>
		<path id="Path_74" class="st13" d="M-135.9,24.1c-0.8-0.3-1.2-0.8-1.1-1.5c0.2-0.6,3.5-0.7,4.1-0.1
			C-132.3,23-133.2,25.1-135.9,24.1z"/>
		<path id="Path_75" class="st1" d="M-136.3,22.3c0,0,0.7,1.2,0.4,1.8c0,0,2.3,0.8,2.3-0.5c0,0-0.4-1-0.3-1.6L-136.3,22.3z"/>
		<g id="Group_17" transform="translate(21.995 30.557)">
			<path id="Path_76" class="st14" d="M-159.1-9.2c0,0-1.1-1.8-1-3.6c0-0.5,0.2-0.9,0.5-1.2c-0.2-0.4-0.2-0.9,0-1.3
				c0,0,0.5,0.6,2.4,0.4c1.8-0.2,2,1.1,2,1.1c1.3,0.2,0.4,4.1-0.5,4.5H-159.1z"/>
			<path id="Path_77" class="st2" d="M-159.6-10.9c0,0-0.7-0.7-0.7,0.1c-0.1,0.9,0.7,1.2,0.9,1C-159.3-10.2-159.6-10.9-159.6-10.9z"
				/>
			<path id="Path_78" class="st2" d="M-155-10.9c0,0,0.7-0.7,0.7,0.1c0.1,0.9-0.7,1.2-0.9,1C-155.2-10.1-155-10.9-155-10.9z"/>
			<path id="Path_79" class="st2" d="M-157.3-7.7c-1.5,0-2.3-0.9-2.3-3.8c0-1.5,0.7-2.4,2.4-2.4c1.6,0,2.3,0.9,2.3,2.4
				C-154.9-8.5-155.8-7.7-157.3-7.7z"/>
			<path id="Path_80" class="st5" d="M-155.4-10.5c0,0.2-0.1,0.3-0.3,0.3c-0.2,0-0.3,0-0.4-0.2c0,0,0,0,0,0c0-0.2,0.1-0.3,0.3-0.3
				C-155.6-10.8-155.4-10.7-155.4-10.5z"/>
			<path id="Path_81" class="st5" d="M-158.4-10.4c0,0.2-0.2,0.3-0.4,0.3c-0.2,0-0.3-0.1-0.3-0.3c0-0.2,0.2-0.3,0.4-0.3
				C-158.5-10.7-158.4-10.6-158.4-10.4z"/>
			<g id="Group_14" transform="translate(12.999 10.961)">
				<path id="Path_82" class="st14" d="M-169-23C-169-23-169.1-23-169-23c-0.2-0.1-0.4-0.2-0.7-0.1c0,0-0.1,0-0.1-0.1s0-0.1,0.1-0.1
					c0.2,0,0.5,0,0.7,0.1C-168.9-23.1-168.9-23.1-169-23C-169-23-169-23-169-23C-169-23-169-23-169-23z"/>
			</g>
			<g id="Group_15" transform="translate(5.272 11.058)">
				<path id="Path_83" class="st14" d="M-164.1-23.1C-164.1-23.1-164.1-23.1-164.1-23.1c-0.1-0.1-0.1-0.1,0-0.1
					c0.2-0.1,0.4-0.2,0.7-0.2c0,0,0.1,0,0.1,0.1c0,0,0,0.1-0.1,0.1C-163.6-23.3-163.8-23.2-164.1-23.1L-164.1-23.1z"/>
			</g>
			<path id="Path_84" class="st6" d="M-156.2-11.2c0,0.2-0.1,0.3-0.2,0.3s-0.2-0.1-0.2-0.3c0-0.2,0.1-0.3,0.2-0.3
				C-156.3-11.6-156.2-11.4-156.2-11.2z"/>
			<path id="Path_85" class="st6" d="M-158.1-11.2c0,0.2-0.1,0.3-0.2,0.3c-0.1,0-0.2-0.1-0.2-0.3c0-0.2,0.1-0.3,0.2-0.3
				C-158.2-11.6-158.1-11.4-158.1-11.2z"/>
			<path id="Path_86" class="st14" d="M-159.2-13.6c1.2,0.4,2.5,0.5,3.8,0.4c0,0,0.5,0.6,0.4,2.7c0,0,1.3-3.8-2.5-3.8
				s-2.1,3.7-2.1,3.7S-159.8-12.9-159.2-13.6z"/>
			<g id="Group_16" transform="translate(10.826 12.172)">
				<path id="Path_87" class="st5" d="M-168.1-22.4l-0.1-0.1l0.3-0.3c-0.3-0.4-0.3-1.3-0.3-1.3h0.2c0,0,0,1,0.3,1.3l0.1,0.1
					L-168.1-22.4z"/>
			</g>
			<path id="Path_88" class="st6" d="M-158.2-9.8c0,0,1.4,0.1,2.2-0.1c0.1,0.5-0.3,1-0.8,1.1c0,0-0.1,0-0.1,0
				C-158.2-8.7-158.2-9.8-158.2-9.8z"/>
		</g>
		<path id="Path_89" class="st4" d="M-130.1,24.7c0.3-0.1,0.2,0.7,0,0.5C-130.3,25-130.3,24.8-130.1,24.7z"/>
		<path id="Path_90" class="st4" d="M-133.4,28.2c0,0.3-0.7,0-0.4-0.2C-133.5,27.9-133.3,27.9-133.4,28.2z"/>
		<path id="Path_91" class="st1" d="M-136.3,29.7c0,0-0.4,1.1-0.4,1.7c0,0.6,0.2,0.6,0.2,0.6c-0.2,0.1-0.3,0.3-0.4,0.5
			c-0.1,0.4,0.8,0.6,0.9,0.6s0.7-0.2,0.7-0.2l0.1-2.1l-0.6-0.4L-136.3,29.7z"/>
		<path id="Path_92" class="st2" d="M-136,29.6c0.4,0.2,0.8,0.5,1.1,0.8c0.3,0.3,0.1,2.6,0,2.7c-0.1,0.1-1.1,0.3-1.3,0.2
			s0.1-0.8,0.1-0.8s0.5-0.1,0.4,0.1c0,0.1,0,0.2,0,0.4l0.2-0.1c-0.1-0.3-0.1-0.6,0-0.9c0.1-0.4-0.7-0.8-0.8-1.5
			C-136.4,29.7-136,29.6-136,29.6z"/>
		<path id="Path_93" class="st11" d="M-144.2,28.4c-0.3-1.1,0.8-1.5,2.3-1.3c1.8,0.2,5.3,0.7,6.1,2.6c0.1,0.4,0,0.9-0.4,1.1
			C-137.9,31.8-143.7,30.5-144.2,28.4z"/>
		<path id="Path_94" class="st13" d="M-138.7,27.7c0,0-2.1-0.9-3.1-0.9C-142.8,26.7-140.4,27.6-138.7,27.7z"/>
		<g id="Group_18" transform="translate(64.554)">
			<path id="Path_95" class="st2" d="M-187.6,8.9c-0.2,0.3-0.3,0.6-0.4,0.9c-0.1,0.6-0.2,0.9-0.4,1.2c-0.1,0.2-0.2,0.5-0.1,0.7
				c-0.5,0.2-1,0.2-1.5-0.1c0-0.2,0-0.4,0-0.6c-0.1-0.3-0.6-0.4-0.7-0.9c-0.1-0.4-0.4-0.8-0.6-1.1c0,0,0.1-0.3,0.4-0.1
				c0.2,0.2,0.4,0.6,0.5,0.7c0,0,0.1,0,0.1,0l0,0c0.1,0,0.2,0,0.3-0.1c0,0,0,0,0,0c0,0,0,0,0,0c0.2-0.3,0.3-1,0.3-1.3
				c0-0.5,0-1.1,0.3-1c0.3,0.1,0,0.4,0.2,1.4l0.1,0c0,0.1,0.2-0.6,0.3-1.3c0-0.5,0.3-0.3,0.4-0.1c0.1,0.1,0,0.6-0.1,0.9
				c0,0.2,0,0.4,0,0.6l0.1,0.1c0.4-0.8,0.3-1.1,0.6-1.1c0.3,0,0.2,0.6,0,0.9c-0.1,0.2-0.1,0.4-0.2,0.6c0.5-0.5,0.4-0.8,0.6-0.8
				C-187.2,8.2-187.4,8.7-187.6,8.9z"/>
			<path id="Path_96" class="st1" d="M-189.5,10.1c-0.2-0.4-0.7-0.6-0.8-0.6c0.1,0,0.2,0,0.3-0.1C-189.8,9.5-189.5,9.8-189.5,10.1z"
				/>
		</g>
		<g id="Group_19" transform="translate(35.407 213.768)">
			<path id="Path_97" class="st4" d="M-169.9-147.7c0,0-0.3-0.6,0-0.9c0.3-0.3,0.6,0.2,1,0.1c0.5-0.1,0.6-0.4,0.7,0
				C-168.1-148-168.2-146.6-169.9-147.7z"/>
			<path id="Path_98" class="st15" d="M-168.2-147.7c0,0-1.2,0.4-1.9,0l0.2,0.5c0,0,1.3,0.1,1.5-0.2L-168.2-147.7z"/>
			<path id="Path_99" class="st15" d="M-168.2-147c0,0-1.1-0.2-1.7,0.1v0.3c0,0,1.5-0.4,2,0L-168.2-147z"/>
			<path id="Path_100" class="st15" d="M-169.9-146.1c0.2-0.3,0.5-0.6,0.9-0.6c0.4,0,0.8,0.1,1.2,0.3
				C-168.5-146.5-169.3-146.5-169.9-146.1z"/>
		</g>
		<g id="Group_21" transform="translate(117.474 191.791)">
			<path id="Path_101" class="st4" d="M-222.8-131.5c-1.3,1.7-3.1,2.9-5.1,3.5c-0.5-0.4-0.8-0.9-0.9-1.5c0,0-0.8-0.7-0.9-1.1
				c-0.1-0.4,0.7-1.4,1.2-1.3c0.3,0.1,0.5,0.3,0.6,0.5c-0.4-0.9-0.1-1.2,0.5-1.2c0.6,0.1,0,0.2,0.5,0.7l0.1,0.1
				c0.1,0.1,0.2,0.1,0.3,0.1c0.1,0,0.2,0,0.3,0c0.1,0,0.1,0,0.2,0c0.1,0,0.2,0,0.3-0.1c0.2-0.1,0.4-0.1,0.6-0.2
				c0.7-0.4,1.1-0.6,1.6-0.4c0.6,0.1,0.6,0.6,0.6,0.6L-222.8-131.5z"/>
			<path id="Path_102" class="st15" d="M-222.8-131.5c-1.3,1.7-3.1,2.9-5.1,3.5c1.5-0.7,2.9-1.5,3.8-2.5
				C-223.1-131.7-222.8-131.5-222.8-131.5z"/>
			<g id="Group_20" transform="translate(8.664 3.013)">
				<path id="Path_103" class="st15" d="M-235.5-134.8c0.1,0.1,0.2,0.1,0.3,0.1c-0.3,0.1-0.6,0.3-0.6,0.6l-0.2-0.1
					C-236.1-134.5-235.8-134.8-235.5-134.8z"/>
				<path id="Path_104" class="st15" d="M-235.1-134.1h-0.3c-0.1-0.2,0-0.5,0.2-0.7c0.1,0,0.2,0,0.3,0
					C-235.1-134.6-235.2-134.3-235.1-134.1z"/>
				<path id="Path_105" class="st15" d="M-234.5-134.2l-0.3,0c-0.1-0.2-0.1-0.4,0-0.6c0.1,0,0.2,0,0.3-0.1
					C-234.5-134.6-234.6-134.4-234.5-134.2z"/>
			</g>
		</g>
		<path id="Path_106" class="st11" d="M-132.7,33.6c0,0,0.6,3-0.6,4.2c-1.1,1.2-0.4,0.2,0-1.3C-133,34.9-133.3,33.3-132.7,33.6z"/>
		<path id="Path_107" class="st11" d="M-127.5,32.2c1.1,0.4,2.1,1.2,2.7,2.2C-124.8,34.5-126,31.8-127.5,32.2z"/>
	</g>
	<g id="Group_31" transform="translate(86.583 0.07)">
		<g id="Group_23">
			<path id="Path_108" class="st2" d="M-61.8,9.6c0.3,0.1,0.6,0.2,0.9,0.3c0.5,0.3,0.8,0.5,1.1,0.5c0.3,0,0.5,0.6,0.5,0.6
				s1.3,0.3,1.4-0.6c0,0-0.7-1-0.8-1.2c-0.1-0.3,0.1-0.7-0.2-1.2c-0.2-0.4-0.4-0.8-0.4-1.2c0,0-0.3-0.1-0.3,0.2
				c0,0.3,0.2,0.7,0.1,0.8c0,0,0,0,0,0.1l0,0c0,0.1-0.1,0.1-0.2,0.1h0c-0.3,0-0.9-0.5-1.1-0.7c-0.3-0.3-0.8-0.7-0.9-0.5
				c-0.1,0.3,0.3,0.3,0.9,1.1L-61,8.2c-0.4-0.2-0.8-0.4-1.1-0.7c-0.4-0.3-0.4,0.1-0.4,0.2c0.1,0.1,0.5,0.4,0.7,0.6
				c0.2,0.1,0.3,0.3,0.5,0.4l0,0.1c-0.9-0.2-1-0.5-1.2-0.3c-0.2,0.2,0.4,0.6,0.6,0.6c0.2,0.1,0.4,0.1,0.5,0.3c-0.7,0-0.9-0.2-1-0.1
				C-62.5,9.4-62,9.6-61.8,9.6z"/>
			<path id="Path_109" class="st1" d="M-59.6,9c-0.2-0.4,0-0.9,0-1c0,0.1-0.1,0.1-0.2,0.1C-59.9,8.4-59.8,8.8-59.6,9z"/>
		</g>
		<g id="Group_24" transform="translate(131.846)">
			<path id="Path_110" class="st2" d="M-154.6,9.6c-0.3,0.1-0.6,0.2-0.9,0.3c-0.5,0.3-0.8,0.5-1.1,0.5c-0.3,0-0.5,0.6-0.5,0.6
				s-1.3,0.3-1.4-0.6c0,0,0.7-1,0.8-1.2c0.1-0.3-0.1-0.7,0.2-1.2c0.2-0.4,0.4-0.8,0.4-1.2c0,0,0.3-0.1,0.3,0.2
				c0,0.3-0.2,0.7-0.1,0.8c0,0,0,0,0,0.1l0,0c0,0.1,0.1,0.1,0.2,0.1h0c0.3,0,0.9-0.5,1.1-0.7c0.3-0.3,0.8-0.7,0.9-0.5
				c0.1,0.3-0.3,0.3-0.9,1.1l0.1,0.1c0.4-0.2,0.8-0.4,1.1-0.7c0.4-0.3,0.4,0.1,0.4,0.2c-0.1,0.1-0.5,0.4-0.7,0.6
				c-0.2,0.1-0.3,0.3-0.5,0.4l0,0.1c0.9-0.2,1-0.5,1.2-0.3c0.2,0.2-0.4,0.6-0.6,0.6c-0.2,0.1-0.4,0.1-0.5,0.3c0.7,0,0.9-0.2,1-0.1
				C-153.8,9.4-154.4,9.6-154.6,9.6z"/>
			<path id="Path_111" class="st1" d="M-156.8,9c0.2-0.4,0-0.9,0-1c0,0.1,0.1,0.1,0.2,0.1C-156.5,8.4-156.6,8.8-156.8,9z"/>
		</g>
		<path id="Path_112" class="st0" d="M-34.4,49.8L-37,34.1l-5.1,0.6l-5.1-0.6l-2.5,15.8l-1.2,15.3c0,0,0.4,1.3,2.9,0.4
			c0,0,1.9-14.2,2.2-14.5c0.3-0.3,3.3-9.6,3.3-9.6h0.9c0,0,3,9.3,3.3,9.6c0.3,0.3,2.2,14.5,2.2,14.5c2.5,0.9,2.9-0.4,2.9-0.4
			L-34.4,49.8z"/>
		<path id="Path_113" class="st16" d="M-43.7,18.8c0.3,0.3,1.9,0.9,2.7,0l0.6,0.6c0,0-0.7,1.5-1.8,1.6c-1.1,0.1-2-1.4-2-1.4
			L-43.7,18.8z"/>
		<path id="Path_114" class="st16" d="M-39.2,18.6c1.9-0.8,8-3,8-3s4.1-5.2,5-5.9c0.6,0.2,1.1,0.7,1.2,1.3c0,0-2.7,5.7-4.1,7.3
			c-1.4,1.6-8.8,5.1-8.8,5.1L-39.2,18.6z"/>
		<path id="Path_115" class="st14" d="M-45.8,18.5c0.6-0.4,3.4,1.5,3.4,1.5s3.7-2,4.6-1.6c0,0,0.8,1,1.1,3.7
			c0.3,2.7,0.3,13.7,0.3,13.7c-1.9,0.6-3.9,0.9-5.8,0.9c-3.8,0-5.9-1.1-5.9-1.1S-48.8,20.4-45.8,18.5z"/>
		<path id="Path_116" class="st1" d="M-43.5,18.2c0,0,0.4,1.3,0,1.8c0,0,0.4,0.9,1.2,0.9c0.9,0,1.2-0.9,1.2-0.9s-0.5-1.2,0-1.7
			L-43.5,18.2z"/>
		<g id="Group_28" transform="translate(63.132 17.177)">
			<path id="Path_117" class="st9" d="M-107.7-0.2c0,0-0.9-1.7-0.7-3.4c0.2-1.8,2.8-2.2,4.6-1.3c0,0-0.5-0.5-0.3-0.7
				c0.2-0.1,0.6,0.8,0.6,0.8s0.6-0.2,0.7,0s-0.6,0.3-0.6,0.3s1.2,0.7,0.1,4.1L-107.7-0.2z"/>
			<path id="Path_118" class="st2" d="M-107.8-1.3c0,0-0.6-0.6-0.7,0.1c-0.1,0.9,0.7,1.2,0.8,0.9C-107.5-0.5-107.8-1.3-107.8-1.3z"
				/>
			<path id="Path_119" class="st2" d="M-103.3-1.2c0,0,0.6-0.6,0.7,0.1c0.1,0.9-0.7,1.2-0.8,0.9C-103.6-0.5-103.3-1.2-103.3-1.2z"/>
			<path id="Path_120" class="st2" d="M-105.6,1.9c-1.4,0-2.2-0.9-2.2-3.7c0-1.4,0.7-2.3,2.3-2.3s2.3,0.9,2.3,2.3
				C-103.3,1.1-104.1,1.9-105.6,1.9z"/>
			<path id="Path_121" class="st5" d="M-103.7-0.9c0.1,0.2,0,0.4-0.2,0.4c-0.2,0.1-0.4,0-0.4-0.2c-0.1-0.2,0-0.4,0.2-0.4
				c0,0,0,0,0.1,0C-103.9-1.1-103.8-1-103.7-0.9z"/>
			<path id="Path_122" class="st5" d="M-106.7-0.8c0,0.2-0.2,0.3-0.3,0.2c0,0,0,0,0,0c-0.2,0-0.3-0.1-0.3-0.3c0-0.2,0.2-0.3,0.3-0.2
				c0,0,0,0,0,0C-106.8-1.1-106.6-0.9-106.7-0.8z"/>
			<g id="Group_25" transform="translate(12.71 10.918)">
				<path id="Path_123" class="st9" d="M-117.1-13.2C-117.1-13.2-117.1-13.2-117.1-13.2c-0.2-0.1-0.4-0.2-0.6-0.2c0,0-0.1,0-0.1-0.1
					c0,0,0-0.1,0.1-0.1c0.2,0,0.5,0.1,0.7,0.2C-117-13.3-117-13.3-117.1-13.2L-117.1-13.2z"/>
			</g>
			<g id="Group_26" transform="translate(5.193 10.918)">
				<path id="Path_124" class="st9" d="M-112.2-13.2C-112.3-13.2-112.3-13.2-112.2-13.2c-0.1,0-0.1-0.1,0-0.1
					c0.2-0.2,0.4-0.2,0.7-0.2c0,0,0.1,0,0.1,0.1c0,0,0,0.1-0.1,0.1C-111.8-13.4-112-13.4-112.2-13.2
					C-112.2-13.2-112.2-13.2-112.2-13.2z"/>
			</g>
			<path id="Path_125" class="st6" d="M-104.5-1.6c0,0.2-0.1,0.3-0.2,0.3s-0.2-0.1-0.2-0.3s0.1-0.3,0.2-0.3S-104.5-1.7-104.5-1.6z"
				/>
			<path id="Path_126" class="st6" d="M-106.4-1.6c0,0.2-0.1,0.3-0.2,0.3c-0.1,0-0.2-0.1-0.2-0.3s0.1-0.3,0.2-0.3
				C-106.5-1.9-106.4-1.7-106.4-1.6z"/>
			<path id="Path_127" class="st6" d="M-106.4,0.3c0,0,1.3,0.2,1.9-0.2c0,0-0.4,0.8-1,0.8C-105.9,0.9-106.3,0.7-106.4,0.3z"/>
			<path id="Path_128" class="st9" d="M-103.4-0.9c0-0.9-0.3-1.9-0.7-2.7c0,0-1.1,0.5-1.3,0.4s0.2-0.4,0.2-0.4s-1.8,0.6-1.9,0.5
				s0.6-0.5,0.6-0.5l-1.1,0.4c0,0-0.3,1.4-0.2,2.4c-0.2-0.4-0.4-0.9-0.5-1.4c-0.1-0.6,0.2-2.2,1.8-2.3s2.6,0.3,3,1
				C-103-2.8-103-1.8-103.4-0.9z"/>
			<g id="Group_27" transform="translate(10.392 13.238)">
				<path id="Path_129" class="st5" d="M-115.8-13.4c-0.1,0-0.2,0-0.3,0l0-0.1c0.2,0,0.4,0.1,0.4,0c0,0,0-0.1,0-0.1
					c-0.2-0.4-0.3-1.5-0.3-1.6h0.2c0,0,0,1.1,0.2,1.5c0.1,0.1,0.1,0.2,0,0.3C-115.6-13.4-115.7-13.3-115.8-13.4z"/>
			</g>
		</g>
		<path id="Path_130" class="st17" d="M-40.7,19.2c0,0,2.6,8,2.8,14.5c0,0,0.9,0.3,2-1.2c1-1.4,0.4-12.7-1.6-14.6
			C-37.4,17.9-38.4,17.7-40.7,19.2z"/>
		<path id="Path_131" class="st16" d="M-40.2,20.6c0,0,0.5-1.1,0.3-1.8c-0.2-0.7-0.9,0-0.9,0C-40.8,19.4-40.5,20-40.2,20.6z"/>
		<path id="Path_132" class="st16" d="M-45.4,18.6c-1.9-0.8-8-3-8-3s-4.1-5.3-5-6.1c-0.6,0.4-1,1.1-1.1,1.8c0,0,2.6,5.3,4,7
			c1.4,1.6,8.8,5.1,8.8,5.1L-45.4,18.6z"/>
		<path id="Path_133" class="st17" d="M-43.9,19.2c0,0-2.6,8-2.8,14.5c0,0-0.9,0.3-2-1.2c-1-1.4-0.4-12.7,1.6-14.6
			C-47.1,17.9-46.2,17.7-43.9,19.2z"/>
		<path id="Path_134" class="st16" d="M-44.3,20.6c0,0-0.5-1.1-0.3-1.8s0.9,0,0.9,0C-43.8,19.4-44,20-44.3,20.6z"/>
		<g id="Group_29" transform="translate(97.078 212.774)">
			<path id="Path_135" class="st10" d="M-128-143.5h-5.1c-0.2-1.4-0.1-2.7,0.2-4.1l2.3-0.4c0.2,1.3,0.5,1.8,0.8,2.1l0,0
				c0.3,0.2,0.6,0.3,0.9,0.4c0.4,0.1,0.6,0.4,0.8,0.7C-127.9-144.4-127.9-143.9-128-143.5z"/>
			<path id="Path_136" class="st9" d="M-128-144.8c-1.3,0.2-4,0.4-3.9-0.3c0.1-0.6,1.3-0.8,2.1-0.8l0,0c0.3,0.2,0.6,0.3,0.9,0.4
				C-128.4-145.4-128.1-145.2-128-144.8z"/>
		</g>
		<g id="Group_30" transform="translate(34.319 212.774)">
			<path id="Path_137" class="st10" d="M-82.3-143.5h-5.1c-0.1-0.3-0.1-0.7-0.1-1c0-0.5,0.4-0.9,0.9-1c0.4-0.2,0.8-0.2,1.1-0.5
				c0.3-0.3,0.5-0.8,0.7-2l2.3,0.4C-82.2-146.3-82.1-144.9-82.3-143.5z"/>
			<path id="Path_138" class="st9" d="M-87.5-144.5c0-0.5,0.4-0.9,0.9-1c0.4-0.2,0.8-0.2,1.1-0.5c0.7,0.2,1.6,0.6,1.8,1.1
				C-83.4-144.1-86.4-144.2-87.5-144.5z"/>
		</g>
	</g>
	<g id="Group_39" transform="translate(171.542 51.659)">
		<g id="Group_32" transform="translate(80.286 162.634)">
			<path id="Path_139" class="st3" d="M-176.6-145.3c0,0.1,0,0.3,0,0.4h-6.2v-0.4c0.1-1,0.3-2.1,0.6-3l1.6-0.7
				c0.1,0.6,0.4,1.2,0.9,1.6c0.1,0.1,0.2,0.2,0.4,0.2c0.1,0,0.1,0.1,0.2,0.1c0.1,0.1,0.3,0.1,0.4,0.1c0.5,0.1,1,0.2,1.5,0.3
				C-176.7-146.6-176.6-145.8-176.6-145.3z"/>
			<path id="Path_140" class="st18" d="M-176.6-145.3c0,0.1,0,0.3,0,0.4h-6.2v-0.4H-176.6z"/>
			<path id="Path_141" class="st18" d="M-179.4-147.2l-0.9,0.3l-0.2-0.3l0.7-0.2C-179.7-147.3-179.5-147.2-179.4-147.2z"/>
			<path id="Path_142" class="st18" d="M-178.8-146.9l-0.6,0.4l-0.4-0.1l0.5-0.4C-179.1-147-179-147-178.8-146.9z"/>
		</g>
		<g id="Group_33" transform="translate(0 160.098)">
			<path id="Path_143" class="st3" d="M-120-142.8c0,0.1,0,0.3-0.1,0.4h-4.1c-0.1-0.1-0.1-0.2-0.1-0.4c-0.4-2,2.3-4.4,2.3-4.4
				l0.9,1.2c0,0-0.1,1.9,0.6,2.2C-120.1-143.6-119.9-143.2-120-142.8z"/>
			<path id="Path_144" class="st18" d="M-124.3-142.8h4.3c0,0.1,0,0.3-0.1,0.4h-4.1C-124.3-142.5-124.3-142.7-124.3-142.8z"/>
			<path id="Path_145" class="st18" d="M-120.7-143.9c0,0-1.7-0.4-2.5,0.1v-0.3C-123.2-144.1-121.7-144.8-120.7-143.9z"/>
			<path id="Path_146" class="st18" d="M-121-144.4c-0.7-0.3-1.5-0.3-2.2,0l0.1-0.3C-123.1-144.7-121.8-145.2-121-144.4z"/>
		</g>
		<path id="Path_147" class="st19" d="M-98.2-0.3c0,1.7-1.5,15.2-1.5,15.2c-0.9,0.1-1.8,0-2.7-0.2c-0.4-6.9-0.5-12.8-0.5-12.8
			l-7.1-5.3l0,0c0,0,0,0.1-0.1,0.3c-0.4,1.6-1.8,8.1-2.4,9.6c-0.7,1.7-8.4,8.8-8.4,8.8c-1.4-0.2-2.6-1.2-2.6-1.2
			c2-3.2,4.2-6.3,6.5-9.2c0.3-1.7,0.5-5.3,0.6-8.1v-0.1c0.1-1.9,0.1-3.3,0.1-3.3l-1.3-2.7l8.2-3l1.9,2.4c0,0,0.4,0.4,1.1,1
			c0,0,0.1,0.1,0.1,0.1C-103.7-6.3-98.2-1-98.2-0.3z"/>
		<g id="Group_34" transform="translate(29.933 77.576)">
			<path id="Path_148" class="st7" d="M-146.2-80.6v-0.1c1.7-0.9,1.4-2.4,1.4-2.5l0.1,0C-144.6-83.2-144.3-81.6-146.2-80.6z"/>
			<path id="Path_149" class="st7" d="M-139.9-81.9c0.1,0.4,0.1,0.7,0.1,1.1l0,0c0,0,0,0.1-0.1,0.3c0-1.5-0.4-2.9-1.1-4.1l0.1-0.1
				c0.5,0.8,0.9,1.7,1,2.7c1.3-1.1,0-3.4,0-3.4l0.1-0.1C-139.8-85.5-138.5-83.1-139.9-81.9z"/>
			<path id="Path_150" class="st7" d="M-136.1-86.2L-136.1-86.2c-0.1,0-0.1,0-0.2,0c-0.6,0-1.6-0.8-1.7-0.9l0.1-0.1
				C-137.5-86.9-136.6-86.2-136.1-86.2C-136.1-86.3-136.1-86.2-136.1-86.2z"/>
		</g>
		<path id="Path_151" class="st15" d="M-116.8-23.2c0,0,2.5-0.4,3.8,0.4c1.3,0.8,2.9,2.9,2.9,2.9s-2,0.3-2.2,1.6
			C-112.3-18.4-113.8-21.7-116.8-23.2z"/>
		<path id="Path_152" class="st4" d="M-120.6-21.9c-1.1,0.6-2.8,2.7-2.9,4c-0.1,1.3,0.9,2.5,1.5,3.5c2,3.2,4.1,5.9,5,9.6
			c0,0,4.6,1.9,10-4.6c0,0-3-4.1-4.1-7.6c-0.4-1.4-0.9-2.9-1.7-4.2c-0.9-1.4-2.4-2.2-4.1-2.1C-118.2-23.1-119.6-22.5-120.6-21.9z"/>
		<path id="Path_153" class="st1" d="M-121-23.2c0,0,0.7,1.2,0.4,1.8c0,0,2.3,0.8,2.3-0.5c0,0-0.4-1-0.3-1.6L-121-23.2z"/>
		<path id="Path_154" class="st1" d="M-115.9-15.3c0,0-1.3,0.4-1.6,0.8c-0.3,0.5-0.5,1-0.6,1.5h2.2l0.4-0.8l0.5-1L-115.9-15.3z"/>
		<g id="Group_38" transform="translate(3.376)">
			<path id="Path_155" class="st3" d="M-121.4-24.5c0,0,0.9-0.4,0.3-3.1c-0.4-1.8-0.9-2.1-1.3-2.1c0,0-0.4-0.7-2-0.4
				c-1.1,0.2-2,1-2.3,2.1c-0.4,1.2,0.4,3.9,1.4,4.1L-121.4-24.5z"/>
			<path id="Path_156" class="st2" d="M-121.2-26.4c0,0,0.6-0.8,0.8,0c0.3,0.9-0.5,1.4-0.7,1.2C-121.3-25.5-121.2-26.4-121.2-26.4z"
				/>
			<path id="Path_157" class="st2" d="M-126-25.6c0,0-0.8-0.6-0.7,0.2c0.1,0.9,1,1.2,1.1,0.8C-125.5-24.8-126-25.6-126-25.6z"/>
			<path id="Path_158" class="st2" d="M-123-22.7c1.5-0.3,2.2-1.4,1.7-4.4c-0.3-1.5-1.2-2.3-2.9-2.1c-1.7,0.3-2.3,1.3-2,2.9
				C-125.6-23-124.5-22.4-123-22.7z"/>
			<path id="Path_159" class="st5" d="M-125.5-25.2c0,0.2,0.2,0.3,0.4,0.3c0.2,0,0.3-0.1,0.4-0.3c0-0.2-0.2-0.3-0.4-0.3
				C-125.3-25.5-125.4-25.4-125.5-25.2z"/>
			<path id="Path_160" class="st5" d="M-122.3-25.6c0.1,0.2,0.2,0.3,0.4,0.2c0.2,0,0.3-0.2,0.3-0.3c0,0,0,0,0,0
				c-0.1-0.2-0.2-0.3-0.4-0.2C-122.2-26-122.3-25.8-122.3-25.6z"/>
			<g id="Group_35" transform="translate(6.44 12.08)">
				<path id="Path_161" class="st6" d="M-131.5-39C-131.5-39-131.5-39-131.5-39c-0.1,0-0.1-0.1-0.1-0.1c0,0,0,0,0,0
					c0.2-0.2,0.4-0.3,0.7-0.4c0,0,0.1,0,0.1,0.1c0,0,0,0.1-0.1,0.1C-131.1-39.3-131.3-39.2-131.5-39C-131.4-39-131.5-39-131.5-39z"
					/>
			</g>
			<g id="Group_36" transform="translate(14.458 11.015)">
				<path id="Path_162" class="st6" d="M-136.6-38.4C-136.6-38.4-136.7-38.4-136.6-38.4c-0.2-0.1-0.4-0.2-0.7-0.1c0,0-0.1,0-0.1-0.1
					c0,0,0-0.1,0.1-0.1c0,0,0,0,0,0c0.3,0,0.5,0,0.7,0.1C-136.5-38.5-136.5-38.5-136.6-38.4C-136.5-38.4-136.5-38.4-136.6-38.4
					C-136.6-38.4-136.6-38.4-136.6-38.4z"/>
			</g>
			<path id="Path_163" class="st6" d="M-124.8-26.1c0,0.2,0.1,0.3,0.2,0.3c0.1,0,0.2-0.2,0.1-0.4c0-0.2-0.1-0.3-0.2-0.3
				C-124.7-26.5-124.8-26.3-124.8-26.1z"/>
			<path id="Path_164" class="st6" d="M-122.7-26.4c0,0.2,0.1,0.3,0.2,0.3c0.1,0,0.2-0.2,0.1-0.4c0-0.2-0.1-0.3-0.2-0.3
				C-122.7-26.8-122.8-26.6-122.7-26.4z"/>
			<path id="Path_165" class="st6" d="M-122.1-24.7c0,0-1.3,0.4-2.1,0.2c0,0,0.5,0.6,1.2,0.5C-122.2-24.2-122.1-24.7-122.1-24.7z"/>
			<path id="Path_166" class="st0" d="M-122.1-28.4c-1.2,0.8-2.5,1.2-3.9,1.3l0.1,1.9c0,0-2-3.7,2-4.4c4-0.7,2.8,3.5,2.8,3.5
				S-121.2-27.8-122.1-28.4z"/>
			<g id="Group_37" transform="translate(11.56 14.109)">
				<path id="Path_167" class="st5" d="M-135.1-39.3l0-0.2c0,0,0.2,0,0.3-0.2c0-0.1-0.1-0.2-0.2-0.4c-0.2-0.3-0.3-0.5-0.3-0.8l0.2,0
					c0.1,0.3,0.2,0.5,0.3,0.8c0.1,0.2,0.2,0.4,0.2,0.6C-134.7-39.4-135.1-39.3-135.1-39.3z"/>
			</g>
			<path id="Path_168" class="st11" d="M-121.2-28.4c-2.9-1.3-5.6,1.3-5.6,1.3s-0.3-2.1,0.2-2.6c0.1-0.1,0.3-0.2,0.5-0.3
				c1.1-0.7,2.5-0.9,3.7-0.5c0.1,0,0.3,0.1,0.4,0.2C-121.5-29.8-121.2-28.4-121.2-28.4z"/>
			<path id="Path_169" class="st4" d="M-121.5-28.9c-1.6-0.2-3.3,0.1-4.7,1c0,0-0.1-1.4,0.1-2.2c1.1-0.7,2.5-0.9,3.7-0.5
				C-121.9-30-121.5-28.9-121.5-28.9z"/>
			<path id="Path_170" class="st13" d="M-126.5-27.3c0,0,0.4-1.6,0.9-2.1c0.9-0.8,3.3-1,4.6-0.6c1.3,0.5,0,1.9,0,1.9
				S-123.1-29.6-126.5-27.3z"/>
		</g>
		<path id="Path_171" class="st2" d="M-119.4-16.5c0.7,1,1.6,1.8,2.7,2.4c0,0,2.1-1.8,4.9-1.7c0,0-2.3,4.1-4.2,4.5
			c-1,0.2-4.7-2.2-4.7-2.2S-120.1-15.9-119.4-16.5z"/>
		<path id="Path_172" class="st15" d="M-123.1-19.2c0.9-1.5,3,0.7,3.7,2.3c0.7,1.6,1.2,1.9,1.2,1.9s-2.1,0.9-2.1,2.4
			C-120.2-12.6-125-16-123.1-19.2z"/>
		<path id="Path_173" class="st1" d="M-116.7-14.7c0,0,1.3-1.2,5.5-2.9l-0.5-1.7c0.5-0.6,1.4-0.6,1.4-0.6s2.2,3,1.8,3.9
			C-108.9-15.4-113.4-14.8-116.7-14.7z"/>
		<path id="Path_174" class="st2" d="M-112.1-17.1c0-0.1,0.1-0.3,0.2-0.4c0.2-0.2,0.1-0.6,0.2-0.7c0.2-0.3,0.4-0.5,0.6-0.7
			c0.2-0.1,0.5-0.3,0.6,0c0.1,0.3-0.4,0.2-0.6,0.6c0.3-0.1,0.5-0.1,0.8-0.1c0.4,0.1,0.5,0.4,0,0.4c-0.3,0-0.5,0.1-0.8,0.2
			c0,0,0.5,0.1,0.4,0.3C-110.9-17.3-111.5-17.4-112.1-17.1z"/>
	</g>
	<g id="Group_53" transform="translate(58.24 46.054)">
		<path id="Path_175" class="st20" d="M-29.8-5.8c0.4,1,1.9,2.6,1.9,2.6s3.7-2.2,5.5-1.3c1.7,0.9,3.1,1.5,4.2,1.1s-3.7-9.2-3.7-9.2
			l-6.2-2.4c0,0-0.1,1.6-0.8,1.9c-0.7,0.3-1.5,2.9-1.4,3.4C-30.3-9.2-29.8-5.8-29.8-5.8z"/>
		<path id="Path_176" class="st1" d="M-22.8-3.2c0,0-1.6,3.2-4.9,7.2c0,0-0.3,4.8-9.1,12.3l-0.9-0.7c0,0,5.2-8.2,6.3-10.7
			s-0.6-4.8,4.2-11.1L-22.8-3.2z"/>
		<path id="Path_177" class="st10" d="M-27.9-8.8c-1.4,2.6-1.9,6-1.9,6l-0.6,1.6c1.5,0.8,3.1,1.3,4.8,1.6l1-2.7L-27.9-8.8z"/>
		<path id="Path_178" class="st2" d="M-20.7-3.4c0,0,0.7,3.5,0.6,8.7c0,0,2.7,4,0.5,15.3h-1.2c0,0-0.9-9.7-1.7-12.3
			c-0.7-2.6-3.4-3.4-3.6-11.4L-20.7-3.4z"/>
		<g id="Group_41" transform="translate(50.701 65.359)">
			<path id="Path_179" class="st9" d="M-70.7-65.1c0,0-2.2,0.4-6.1,0.2l-0.1-0.4l0-0.1l-0.4-2.8c-0.3-0.4-0.5-0.8-0.7-1.2
				c0-0.1-0.1-0.2-0.1-0.3c-0.5-1.1-1-2.7-0.5-4.4l0.8,0h0.1L-75-74h0.1l0.9,0h0.1l0.6,0c0,0,3,2.7,2.4,7.6l0,0.7v0.1L-70.7-65.1z"
				/>
			<g id="Group_40" transform="translate(2.297)">
				<path id="Path_180" class="st10" d="M-80-74.1c-0.1,0.2-0.6,1.9-0.3,4.6c0-0.1-0.1-0.2-0.1-0.3c-0.2-2.5,0.3-4.1,0.4-4.4
					C-80.1-74.1-80.1-74.1-80-74.1L-80-74.1C-80-74.1-80-74.1-80-74.1z"/>
				<path id="Path_181" class="st10" d="M-73-65.5c-0.8,0.2-2.1,0.3-3.4,0.3c-1.1,0-2.2,0-2.8-0.1l0-0.1c1,0,3.6,0.2,5.2,0l-0.1-1.8
					c0-1.7-0.4-3.5-1.2-5c-1-0.1-1.7-0.8-2-1.7c0,0,0-0.1,0-0.1l0.1,0c0,0,0,0.1,0,0.1c0.3,0.8,1,1.4,1.9,1.6
					c-0.3-0.5-0.6-1.1-0.9-1.5c0,0,0-0.1-0.1-0.1l0.1-0.1c0.1,0.1,0.1,0.1,0.1,0.2c0.5,0.7,2.2,3.3,2.2,6.7l0.1,1.8
					c0.3,0,0.5-0.1,0.8-0.1L-73-65.5z"/>
			</g>
		</g>
		<path id="Path_182" class="st19" d="M-25.6-20.6c-0.9-0.5-7.2,2-7.2,2s-0.9,1.7-0.4,2.3s2.6,0.4,3.3,0c0.6-0.4,2.3-0.6,2.3-0.6
			L-25.6-20.6z"/>
		<path id="Path_183" class="st12" d="M-20.1-25.9c0.8,0.4,1.5,1.1,1.8,2c0.5,1.5-0.9,5.3-0.5,7c0.5,1.7,0.4,5-1.1,5.7
			s-4.7-0.6-5.3-2.4c-0.7-1.9-0.4-9.1,0.9-11.5C-23-27.6-20.4-26.3-20.1-25.9z"/>
		<path id="Path_184" class="st19" d="M-21.6-19.4c0.3,0.4,1.2-0.3,1.2-0.3s0,3.3-1,3.5c-0.9,0.3-3.4-2.6-3.3-3.3
			C-24.5-20.3-22.3-20.2-21.6-19.4z"/>
		<path id="Path_185" class="st0" d="M-25.2-20.2c0.8,0.6,1.7,1,2.6,1.2c1.7,0.4,2.6-0.4,3.4,0.7c1.3,1.6-0.8,4.6-1.9,6.1
			c-0.8,1.1-1.2,2.4-1.4,3.7c0,0-2.9,0.8-5.4-0.3l-0.2-3.6C-28.1-12.3-29.7-17.1-25.2-20.2z"/>
		<path id="Path_186" class="st19" d="M-22.2-16.8c0,0,1.3-3.2,1.7-3.4c0.4-0.2,1.4,0.3,1.6,0.7c0.2,0.4,0,1.4,0,1.4
			S-20-19.2-22.2-16.8z"/>
		<path id="Path_187" class="st7" d="M-15.9-3.4C-16.5-2.2-18-1.9-18-1.9s-0.1-0.2-0.3-0.5c0,0,0-0.1-0.1-0.1
			c-1.2-1.9-4.7-7.9-4.7-11.1c0-2.2,0.9-4.3,2.5-5.8c1.2,0.3,1.6,0.6,1.6,0.6c0.3,1.6,0.3,3.1,0,4.7c-0.4,2.6-1.1,3.2-0.7,3.4
			c0.4,0.2,0,0.6,0,0.6s2.1,2.9,2.4,3.8c0.3,0.6,0.7,1.6,0.9,2.2l0.1,0.1C-16-3.7-15.9-3.6-15.9-3.4z"/>
		<path id="Path_188" class="st2" d="M-19.5-18.7c0,0-1.5,1.1-0.6,2.8l4.1,4.2c-2.2,2.4-2.5,3.4-4.1,4.5l0.6,0.9
			c0,0,5.7-4.4,5.7-5.4C-13.8-12.1-17.2-17.6-19.5-18.7z"/>
		<path id="Path_189" class="st2" d="M-20.2-7.2c-0.4,0-0.8,0.1-1.3,0.2c-0.5,0.1-1.1,0.2-1.2,0.4c0,0.1,1.1,0,1.1,0
			s-0.9,0.4-0.9,0.5c0,0.1,1.1-0.1,1.1-0.1S-22-5.7-22-5.6c0,0.1,0.9-0.2,0.9-0.2c-0.1,0.2-0.2,0.4-0.3,0.6c0,0,0.2,0.1,0.5-0.3
			c0.4-0.4,0.9-0.3,1.4-0.6C-19-6.5-19.8-7.2-20.2-7.2z"/>
		<path id="Path_190" class="st7" d="M-24.3-19.7c0,0-1.1,0.7-1.8,2.5s-2.9,5.1-3.5,5.9c-0.5,0.8-0.2,5.5-0.2,5.5s-0.7-2.8-0.9-3.9
			c-0.3-1.1,0.9-3.8,1.1-3.9c0.2-0.1,1.1,0.1,0.9-1s2.4-5.8,3-6C-25.6-20.6-24.5-20.4-24.3-19.7z"/>
		<path id="Path_191" class="st7" d="M-27.8-19.5l-0.1,0.1c-0.2,0.3-0.4,0.5-0.7,0.7c-0.3,0.4-0.6,0.9-0.9,1.3
			c0,0.1-1.5,1.2-2.2,1.2l0,0c-0.1,0-0.2,0-0.2-0.1c-0.4-0.4,1.3-3.5,1.7-4.1c0,0,0-0.1,0.1-0.1c0,0,0,0,0,0c0,0,0,0,0,0
			c0,0-0.3-1.1,1-0.9c1,0.2,1.3,1,1.4,1.6C-27.7-19.7-27.8-19.6-27.8-19.5z"/>
		<path id="Path_192" class="st2" d="M-32.2-18.3c0.9-1.1,3.9-3.4,5.5-4l0.4,0.7c0,0-3.1,2.7-3.8,3.9c-0.7,1.2-1.6,1.7-2.5,1.3
			C-33.5-16.8-32.4-18.1-32.2-18.3z"/>
		<path id="Path_193" class="st19" d="M-28.1-19.7l-0.2,0.2l-0.1,0.1l-0.3,0.3c0,0-0.7,0.8-0.7,1.2c0,0.2-1.3,1.3-2.3,1.8
			c-0.4,0.2-0.8,0.3-1,0.1c-0.7-0.4-0.6-1.7-0.2-2.6c0.4-0.8,2-1.7,2.4-2c0.1,0,0.1-0.1,0.1-0.1l0,0l0.2-0.6c0,0,0.6-0.3,1-0.1
			c0,0-1,0-0.8,0.4C-29.8-20.6-28.4-19.7-28.1-19.7z"/>
		<g id="Group_42" transform="translate(55.135 4.777)">
			<path id="Path_194" class="st2" d="M-79.7-27.6c-1,0.4-0.8,1.3-1.8,1.3c-0.6,0-0.6-0.7-0.6-0.7c0.2-0.6,0.4-1.3,0.5-1.9
				c0-0.5,0.2-0.3,0.2-0.3v-0.1c0-0.3-0.1-0.5,0.1-0.4c0.2,0.1,0.3,1,0.3,1c0.2-1.2-0.1-1.4,0.1-1.3c0.3,0.2,0.3,1.2,0.3,1.3
				c0.2-0.7,0.2-1.1,0.3-1c0.2,0.2-0.1,1.5-0.2,2c0,0.1,0,0.1,0,0.2C-79.7-28-79.7-27.6-79.7-27.6z"/>
			<path id="Path_195" class="st1" d="M-80.4-27.7c0,0.1,0,0.1,0,0.2c-0.3,0-0.5,0.1-0.6,0.4C-81-27.5-80.8-27.8-80.4-27.7z"/>
			<path id="Path_196" class="st1" d="M-81.4-28.3c0-0.1,0.1-0.7-0.1-0.9v-0.1C-81.2-29.3-81.4-28.4-81.4-28.3z"/>
		</g>
		<path id="Path_197" class="st19" d="M-25.6-18.3c0,0,0.7-1.8,0.9-2.2c0.2-0.4,1.3-0.3,2.2-0.2c0.8,0.2,1,1.3,1,1.3
			S-24.1-20.6-25.6-18.3z"/>
		<path id="Path_198" class="st1" d="M-21.3-21.9c-0.5,1-0.8,2-0.8,3.1c0,0-1.3,0.9-1.8-0.2c0.3-1.1,0.4-2.3,0.3-3.4
			C-23.8-23.7-21.3-21.9-21.3-21.9z"/>
		<g id="Group_46" transform="translate(63.13 0.972)">
			<path id="Path_199" class="st2" d="M-87-24.9c0,0-0.2-0.8-0.7-0.3c-0.5,0.7,0,1.4,0.3,1.2C-87.1-24.1-87-24.9-87-24.9z"/>
			<path id="Path_200" class="st2" d="M-83.2-22.7c0,0,0.8-0.2,0.6,0.4c-0.3,0.8-1.2,0.7-1.2,0.4S-83.2-22.7-83.2-22.7z"/>
			<path id="Path_201" class="st2" d="M-86.7-21.2c-1.2-0.7-1.4-1.9-0.1-4.2c0.7-1.2,1.7-1.6,3.1-0.9c1.4,0.8,1.5,1.8,0.8,3.1
				C-84.3-20.7-85.4-20.5-86.7-21.2z"/>
			<path id="Path_202" class="st5" d="M-83.8-22.6c-0.1,0.1-0.2,0.2-0.4,0.1c0,0,0,0,0,0c-0.2,0-0.2-0.2-0.2-0.4
				C-84.3-23-84.1-23-84-23c0,0,0,0,0,0C-83.8-22.9-83.7-22.8-83.8-22.6z"/>
			<path id="Path_203" class="st5" d="M-86.3-23.9c-0.1,0.1-0.3,0.1-0.4,0c-0.1-0.1-0.2-0.2-0.1-0.4c0.1-0.1,0.3-0.1,0.4,0
				C-86.3-24.3-86.2-24.1-86.3-23.9C-86.3-23.9-86.3-23.9-86.3-23.9z"/>
			<g id="Group_43" transform="translate(14.128 9.349)">
				<path id="Path_204" class="st6" d="M-97.7-33.5C-97.7-33.5-97.8-33.5-97.7-33.5C-97.8-33.5-97.8-33.5-97.7-33.5
					c-0.1-0.2-0.3-0.4-0.4-0.5c0,0,0-0.1,0-0.1s0.1,0,0.1,0C-97.9-34-97.7-33.8-97.7-33.5C-97.6-33.5-97.7-33.5-97.7-33.5
					L-97.7-33.5z"/>
			</g>
			<g id="Group_44" transform="translate(7.264 6.325)">
				<path id="Path_205" class="st6" d="M-92.5-31.6C-92.5-31.6-92.5-31.6-92.5-31.6c-0.2-0.1-0.4-0.2-0.6-0.1c0,0-0.1,0-0.1,0
					c0,0,0-0.1,0-0.1c0.2,0,0.5,0,0.7,0.1C-92.4-31.8-92.4-31.7-92.5-31.6C-92.5-31.7-92.5-31.6-92.5-31.6z"/>
			</g>
			<path id="Path_206" class="st6" d="M-84.1-23.6c-0.1,0.2-0.2,0.2-0.3,0.2c-0.1,0-0.1-0.2,0-0.4s0.2-0.2,0.3-0.2
				C-84-23.9-84-23.7-84.1-23.6z"/>
			<path id="Path_207" class="st6" d="M-85.8-24.5c-0.1,0.2-0.2,0.2-0.3,0.2c-0.1,0-0.1-0.2,0-0.4c0.1-0.2,0.2-0.2,0.3-0.2
				C-85.7-24.8-85.7-24.6-85.8-24.5z"/>
			<path id="Path_208" class="st6" d="M-86.4-22.9c0,0,0.7,0.5,1.2,0.6c0,0-0.5,0.4-0.9,0.2C-86.3-22.4-86.4-22.7-86.4-22.9z"/>
			<path id="Path_209" class="st6" d="M-84.4-23.9c0,0,0.3-0.3,0.5-0.2c0.1,0.1,0.1,0.5,0.1,0.5h0.3l-0.2-0.1c0,0,0.1-0.4-0.1-0.5
				C-84.1-24.3-84.4-23.9-84.4-23.9z"/>
			<path id="Path_210" class="st6" d="M-85.6-24.5c0,0,0.1-0.4-0.1-0.5s-0.5,0.2-0.5,0.2l-0.2-0.2l0.2,0.2c0,0,0.3-0.3,0.4-0.2
				C-85.4-24.9-85.6-24.5-85.6-24.5z"/>
			<path id="Path_211" class="st12" d="M-83.4-25.8c-0.2-0.3-0.6-0.4-0.9-0.2c0,0-0.1,0-0.1,0.1c-0.6,0.5-2,1.2-2.6,1
				c-0.7-0.3,1.5-3.1,3.3-2.2c1.8,0.8,1.7,3.5,0.9,4.4s-0.4,0.1-0.4,0.1c0-0.7,0.1-1.4,0.3-2C-82.7-25.1-82.9-25.6-83.4-25.8
				C-83.3-25.8-83.3-25.8-83.4-25.8z"/>
			<g id="Group_45" transform="translate(8.741 12.804)">
				<path id="Path_212" class="st5" d="M-94.1-36C-94.2-36-94.2-36-94.1-36l-0.1-0.2c0.1,0,0.2,0,0.2-0.1c0-0.1,0-0.1,0-0.2
					c0,0-0.1,0-0.1,0l-0.1-0.1c0.2-0.1,0.2,0,0.3,0c0.1,0.1,0.1,0.3,0,0.4C-93.9-36.1-94-36-94.1-36z"/>
			</g>
		</g>
		<g id="Group_48" transform="translate(78.324 28.867)">
			<path id="Path_213" class="st19" d="M-91.7-40.7c-0.1,1.1-2.7,4.5-3.1,4.6c-0.1,0-0.2,0.1-0.3,0.2c0,0-0.1,0.1-0.1,0.1
				c-0.2,0.1-0.3,0.3-0.4,0.4c-0.8-0.1-2.9-1-2.2-1.3c0,0,0.1,0,0.1-0.1c0,0,0.1,0,0.1-0.1c0.8-0.7,2.4-3.5,2.4-3.7
				c0-0.2,0.3-0.3,0.3-0.3s-1.5-2.2-2.4-2.5c-0.9-0.3-1.3-1.3-1.3-1.3c-0.8-3.6,1.6-3.1,1.6-3.1C-95.3-46.4-91.7-41.8-91.7-40.7z"/>
			<g id="Group_47" transform="translate(3.908 39.751)">
				<path id="Path_214" class="st20" d="M-99.1-75.6c0,0-0.1,0.1-0.1,0.1c-0.9-0.1-1.8-0.4-2.5-0.9c0,0,0.1,0,0.1-0.1
					C-100.9-76-100-75.7-99.1-75.6z"/>
			</g>
		</g>
		<g id="Group_49" transform="translate(42.529 21.671)">
			<path id="Path_215" class="st20" d="M-70.4-41.1l-0.1,0.1c-0.2,0-0.3,0-0.5-0.1c-0.7-0.2-1.3-0.5-1.8-1c-0.1-0.1-0.2-0.2-0.2-0.3
				c0.1,0,0.1-0.1,0.1-0.1c0.1,0.1,0.1,0.1,0.2,0.2c0.5,0.5,1.1,0.8,1.8,1C-70.7-41.2-70.5-41.1-70.4-41.1z"/>
		</g>
		<g id="Group_50" transform="translate(86.796 83.037)">
			<path id="Path_216" class="st20" d="M-102.9-86.9c-0.5,0.8-1.3,1.4-2.2,1.5c0,0,0-0.1-0.1-0.1c0.9-0.1,1.8-0.7,2.2-1.6
				C-102.9-87-102.9-86.9-102.9-86.9z"/>
		</g>
		<g id="Group_51" transform="translate(0 149.692)">
			<path id="Path_217" class="st4" d="M-36-133.6c-0.2,0.2-0.4,0.5-0.6,0.8c-0.3,0.5,0,0.9-1.3,2.1c0,0-2.8-1.6-4-3.7
				c0-0.4,0.3-0.7,0.6-0.7c0.3-0.1,1.2,0.4,2.1,0.5c0.1,0,0.2,0,0.4,0.1c0.1,0,0.3,0,0.4,0c0.1,0,0.3,0,0.4-0.1l0,0
				c0.3-0.1,0.6-0.4,0.7-0.8c0.4,0.2,0.5,0.6,0.3,1c0,0,0,0.1-0.1,0.1C-37.2-134.4-36.3-134.8-36-133.6z"/>
			<path id="Path_218" class="st15" d="M-37.9-130.8c0,0-2.8-1.6-4-3.7c0,0,0.5-0.1,0.8,0.6C-40.7-133.2-37.7-131.6-37.9-130.8z"/>
			<path id="Path_219" class="st15" d="M-37.9-134.1c-0.2,0.4-0.2-0.3-0.5-0.6c0.1,0,0.3,0,0.4-0.1l0,0
				C-37.8-134.6-37.8-134.3-37.9-134.1z"/>
			<path id="Path_220" class="st15" d="M-38.8-134c-0.2,0.2-0.3-0.4-0.5-0.7c0.1,0,0.2,0,0.4,0.1C-38.7-134.5-38.6-134.2-38.8-134z"
				/>
		</g>
		<g id="Group_52" transform="translate(69.948 168.051)">
			<path id="Path_221" class="st4" d="M-88.9-144.8h-3.9c-0.1-0.4-0.1-0.8,0-1.1c0.1-0.3,0.5-0.5,0.8-0.8l0.3-0.3
				c0.1-0.1,0.1-0.2,0.2-0.3c0.1-0.1,0.1-0.3,0.2-0.4c0.1-0.4,0-0.7-0.1-1.1c0,0,1.3-0.3,1.8,0.5c0,0,0-0.3,0.5-0.1
				c0,0.4,0,0.8,0,1.2C-89-146.7-88.5-146.5-88.9-144.8z"/>
			<path id="Path_222" class="st15" d="M-89.9-147.1c0,0-0.1,0.1-0.1,0.1c0,0-0.1,0-0.1,0c-0.4-0.3-0.9-0.4-1.3-0.2
				c0.1-0.1,0.1-0.3,0.2-0.4c0.3-0.1,0.7-0.2,1.4,0.4C-89.8-147.4-89.8-147.3-89.9-147.1C-89.9-147.2-89.9-147.2-89.9-147.1z"/>
			<path id="Path_223" class="st15" d="M-90.2-146.5L-90.2-146.5c-0.1,0.1-0.2,0.1-0.3,0.1c-0.4-0.3-0.9-0.4-1.5-0.4l0.3-0.3
				c0.5-0.1,1,0,1.4,0.3C-90.2-146.7-90.2-146.6-90.2-146.5z"/>
		</g>
	</g>
</g>
</svg>
