<?xml version="1.0" encoding="utf-8"?>
<!-- Generator: Adobe Illustrator 24.0.2, SVG Export Plug-In . SVG Version: 6.00 Build 0)  -->
<svg version="1.1" id="Layer_1" xmlns="http://www.w3.org/2000/svg" xmlns:xlink="http://www.w3.org/1999/xlink" x="0px" y="0px"
	 viewBox="0 0 98.8 25.3" style="enable-background:new 0 0 98.8 25.3;" xml:space="preserve">
<style type="text/css">
	.st0{fill:#092E6E;}
</style>
<g id="Group_95" transform="translate(-48.943 -205.804)">
	<path id="Path_689" class="st0" d="M60.7,206.8h1.7c5.7,0.5,9.8,5.5,9.4,11.1c-0.2,2.1-1,4.1-2.4,5.8c-0.7,0.7-1.8,0.8-2.6,0.1
		c-0.2-0.2-0.3-0.3-0.4-0.5c-0.8-1.8-1.5-3.7-2.2-5.5c-0.7,1.8-1.4,3.5-2.1,5.3c-0.3,1-1.4,1.5-2.3,1.1c0,0,0,0-0.1,0
		c-0.6-0.3-1.1-0.9-1.3-1.6c-1-2.6-2.1-5.2-3.2-7.9c0.9,0,1.7,0,2.6,0c0.9,2.1,1.7,4.2,2.6,6.3c0.6-1.6,1.3-3.2,1.9-4.8
		c0.2-0.8,0.7-1.4,1.5-1.8c0.9-0.2,1.8,0.2,2.2,1.1c0.8,1.9,1.6,3.9,2.4,5.8c0.9-1.4,1.3-3,1.3-4.7c-0.2-3.7-3-6.9-6.7-7.5
		c-4.4-0.5-8.6,2.2-9.9,6.4c-1.2,3.7,0.1,7.8,3.2,10.2c2.3,1.8,5.2,2.4,8,1.6c0,0.8,0,1.6,0,2.4c-0.5,0.1-1,0.2-1.5,0.3H61
		c-3-0.3-5.7-1.6-7.8-3.9c-1.7-1.9-2.8-4.4-3-7v-1.7c0.2-2.6,1.3-5.1,3-7.1C55.1,208.4,57.8,207.1,60.7,206.8z"/>
	<path id="Path_690" class="st0" d="M92.2,210.6c0.8,0,1.6,0,2.3,0c0,2.5,0,5,0,7.4c1.2-1.1,2.3-2.2,3.5-3.3c0.9,0,1.8,0,2.7,0
		c-1.2,1.1-2.3,2.3-3.5,3.4c1.3,2,2.5,4,3.8,5.9c-0.9,0-1.8,0-2.8,0c-0.9-1.5-1.8-2.9-2.7-4.4c-0.4,0.3-0.7,0.7-1.1,1
		c0,1.1,0,2.3,0,3.4h-2.3C92.2,219.5,92.2,215,92.2,210.6z"/>
	<path id="Path_691" class="st0" d="M113.6,210.6h2.3V224h-2.3C113.6,219.5,113.6,215.1,113.6,210.6z"/>
	<g id="Group_91" transform="translate(71.991 213.343)">
		<path id="Path_692" class="st0" d="M4.5,1.2c2.6-0.9,5.4,0.5,6.3,3.1c0.9,2.6-0.5,5.4-3.1,6.3s-5.4-0.5-6.3-3.1
			c0-0.1,0-0.1-0.1-0.2C0.6,4.7,2,2,4.5,1.2z M5.1,3.2c-2.3,1-2,5.1,0.5,5.6c2,0.5,3.5-1.9,3-3.7C8.3,3.7,7,2.8,5.6,3
			C5.4,3.1,5.3,3.1,5.1,3.2L5.1,3.2z"/>
	</g>
	<path id="Path_693" class="st0" d="M87.2,215.6c1-1,2.4-1.3,3.8-1c-0.2,0.7-0.3,1.5-0.5,2.2c-1.3-0.5-2.7,0.1-3.3,1.4
		c-0.2,1.9,0,3.9-0.1,5.8h-2.3c0-3.1,0-6.2,0-9.3c0.8,0,1.5,0,2.3,0L87.2,215.6z"/>
	<g id="Group_92" transform="translate(101.012 213.42)">
		<path id="Path_694" class="st0" d="M3.5,2.1C5,0.7,7.3,0.6,8.9,1.9C11,4,11,7.4,8.9,9.5C8.8,9.6,8.7,9.7,8.6,9.8
			c-1.5,1.1-3.5,1.3-5.2,0.5c0,1.4,0,2.8,0,4.1H1.2c0-4.4,0-8.8,0-13.2c0.7,0,1.5,0,2.2,0C3.4,1.5,3.4,1.9,3.5,2.1z M5,3.1
			C3,4,3.4,6.4,3.5,8.2C4.7,9,6.2,8.9,7.3,8c0.9-1,1.1-2.5,0.5-3.8C7.3,3.1,6.1,2.7,5,3.1z"/>
	</g>
	<g id="Group_93" transform="translate(116.797 213.409)">
		<path id="Path_695" class="st0" d="M1.5,2.2C3,1.1,4.9,0.7,6.7,1.1c1.5,0.3,2.5,1.5,2.6,3c0.1,2.2,0,4.3,0,6.5c-0.7,0-1.4,0-2,0
			c0-0.2-0.1-0.7-0.1-0.9c-1.3,1.3-3.4,1.5-5,0.4C0.9,9,0.8,7,2,5.7c0.2-0.2,0.3-0.3,0.5-0.5c1.4-0.9,3.1-0.7,4.7-0.6
			C7.1,4.1,7,3.5,6.5,3.2C5.2,2.7,3.7,2.9,2.6,3.7C2.2,3.2,1.8,2.7,1.5,2.2z M4.3,6.4c-0.7,0.3-1.1,1-0.8,1.7
			c0.1,0.2,0.2,0.4,0.4,0.6c1.6,0.9,3.9-0.5,3.4-2.4C6.3,6.1,5.3,6.2,4.3,6.4L4.3,6.4z"/>
	</g>
	<path id="Path_696" class="st0" d="M129.1,215.9c2-2,5.2-2.1,7.2-0.1l0,0c-0.5,0.5-0.9,1-1.3,1.5c-0.9-0.8-2.1-1.1-3.3-0.7
		c-2.2,0.9-2.1,4.7,0.2,5.5c1.1,0.5,2.3-0.2,3.2-0.8c0.4,0.5,0.8,1,1.3,1.5c-1.1,1.1-2.6,1.7-4.1,1.6c-1.4-0.1-2.7-0.9-3.5-2
		C127.5,220.3,127.6,217.7,129.1,215.9z"/>
	<g id="Group_94" transform="translate(136.09 213.396)">
		<path id="Path_697" class="st0" d="M2.6,2.2C4,1,6.1,0.6,7.8,1.3c1.8,0.8,2.6,2.9,2.6,4.8v0.5c-2.4,0-4.7,0-7.1,0
			C3.6,7.3,4.1,8,4.8,8.5C6.2,9.2,8,8.6,9.2,7.8c0.4,0.5,0.8,1,1.2,1.4c-1.8,1.7-4.4,2.1-6.6,1.1C0.8,8.9,0.3,4.4,2.6,2.2z M3.4,4.7
			c1.6,0,3.2,0,4.8,0C8.1,4.2,7.8,3.6,7.3,3.3C6.1,2.5,4.5,2.8,3.7,4C3.6,4.2,3.5,4.5,3.4,4.7z"/>
	</g>
</g>
</svg>
